# xmcd CD database file
#
# Track frame offsets:
#	150
#	18922
#	35555
#	46195
#	88267
#	98004
#	112610
#	136915
#	160060
#	172752
#
# Disc length: 2544 seconds
#
# Revision: 0
# Processed by: cddbd v1.4PL0 Copyright (c) Steve Scherf et al.
# Submitted via: CDex 1.51
#
DISCID=6809ee0a
DTITLE=김용우 - 괴나리
DYEAR=1998
DGENRE=New Age
TTITLE0=천안도 삼거리
TTITLE1=만드레 사냐
TTITLE2=상여소리
TTITLE3=통일 아리랑
TTITLE4=군밤타령
TTITLE5=개타령
TTITLE6=방아타령
TTITLE7=시선뱃노래 (배치기소리)
TTITLE8=시선뱃노래 (닻감는소리)
TTITLE9=시선뱃노래 (노젖는소리)
EXTD=YEAR: 1998
EXTT0=
EXTT1=
EXTT2=
EXTT3=
EXTT4=
EXTT5=
EXTT6=
EXTT7=
EXTT8=
EXTT9=
PLAYORDER=
